<mxfile host="app.diagrams.net" agent="Mozilla/5.0 (Macintosh; Intel Mac OS X 10_15_7) AppleWebKit/605.1.15 (KHTML, like Gecko) Version/18.2 Safari/605.1.15" version="25.0.3">
  <diagram name="Page-1" id="58cdce13-f638-feb5-8d6f-7d28b1aa9fa0">
    <mxGraphModel dx="1208" dy="825" grid="1" gridSize="10" guides="1" tooltips="1" connect="1" arrows="1" fold="1" page="1" pageScale="1" pageWidth="1100" pageHeight="850" background="none" math="0" shadow="0">
      <root>
        <mxCell id="0" />
        <mxCell id="1" parent="0" />
        <mxCell id="2a3bc250acf0617d-7" value="Ödeme Süreci" style="swimlane;whiteSpace=wrap;html=1;rounded=1;shadow=0;comic=0;labelBackgroundColor=none;strokeWidth=1;fontFamily=Verdana;fontSize=12;align=center;" parent="1" vertex="1">
          <mxGeometry x="100" y="495" width="930" height="200" as="geometry" />
        </mxCell>
        <mxCell id="3cde6dad864a17aa-10" style="edgeStyle=elbowEdgeStyle;html=1;labelBackgroundColor=none;endArrow=open;endSize=8;strokeColor=#ff0000;fontFamily=Verdana;fontSize=12;align=left;" parent="2a3bc250acf0617d-7" target="3cde6dad864a17aa-1" edge="1">
          <mxGeometry relative="1" as="geometry">
            <mxPoint x="335" y="95" as="sourcePoint" />
          </mxGeometry>
        </mxCell>
        <mxCell id="3cde6dad864a17aa-11" style="edgeStyle=elbowEdgeStyle;html=1;labelBackgroundColor=none;endArrow=open;endSize=8;strokeColor=#ff0000;fontFamily=Verdana;fontSize=12;align=left;" parent="2a3bc250acf0617d-7" target="3cde6dad864a17aa-2" edge="1">
          <mxGeometry relative="1" as="geometry">
            <mxPoint x="520" y="95" as="sourcePoint" />
          </mxGeometry>
        </mxCell>
        <mxCell id="eZKwlDqIceC6LYPPx4uv-1" value="" style="fontStyle=1;align=center;verticalAlign=middle;childLayout=stackLayout;horizontal=1;horizontalStack=0;resizeParent=1;resizeParentMax=0;resizeLast=0;marginBottom=0;rounded=1;absoluteArcSize=1;arcSize=22;" vertex="1" parent="2a3bc250acf0617d-7">
          <mxGeometry x="405" y="58" width="200" height="100" as="geometry" />
        </mxCell>
        <mxCell id="eZKwlDqIceC6LYPPx4uv-2" value="Ödeme ve Faturalandırma" style="html=1;align=center;spacing=0;verticalAlign=middle;strokeColor=none;fillColor=none;whiteSpace=wrap;" vertex="1" parent="eZKwlDqIceC6LYPPx4uv-1">
          <mxGeometry width="200" height="20" as="geometry" />
        </mxCell>
        <mxCell id="eZKwlDqIceC6LYPPx4uv-3" value="" style="line;strokeWidth=0.25;fillColor=none;align=left;verticalAlign=middle;spacingTop=-1;spacingLeft=3;spacingRight=3;rotatable=0;labelPosition=right;points=[];portConstraint=eastwest;" vertex="1" parent="eZKwlDqIceC6LYPPx4uv-1">
          <mxGeometry y="20" width="200" height="8" as="geometry" />
        </mxCell>
        <mxCell id="eZKwlDqIceC6LYPPx4uv-4" value="" style="html=1;align=left;spacing=0;spacingLeft=10;verticalAlign=middle;strokeColor=none;fillColor=none;whiteSpace=wrap;" vertex="1" parent="eZKwlDqIceC6LYPPx4uv-1">
          <mxGeometry y="28" width="200" height="10" as="geometry" />
        </mxCell>
        <mxCell id="eZKwlDqIceC6LYPPx4uv-5" value="Ödeme Yöntemi Seçme" style="html=1;align=left;spacing=0;spacingLeft=10;verticalAlign=middle;strokeColor=none;fillColor=none;whiteSpace=wrap;" vertex="1" parent="eZKwlDqIceC6LYPPx4uv-1">
          <mxGeometry y="38" width="200" height="14" as="geometry" />
        </mxCell>
        <mxCell id="eZKwlDqIceC6LYPPx4uv-6" value="Tutar Onayı" style="html=1;align=left;spacing=0;spacingLeft=10;verticalAlign=middle;strokeColor=none;fillColor=none;whiteSpace=wrap;" vertex="1" parent="eZKwlDqIceC6LYPPx4uv-1">
          <mxGeometry y="52" width="200" height="14" as="geometry" />
        </mxCell>
        <mxCell id="eZKwlDqIceC6LYPPx4uv-7" value="Fatura Oluşturma" style="html=1;align=left;spacingLeft=10;spacing=0;verticalAlign=middle;strokeColor=none;fillColor=none;whiteSpace=wrap;" vertex="1" parent="eZKwlDqIceC6LYPPx4uv-1">
          <mxGeometry y="66" width="200" height="14" as="geometry" />
        </mxCell>
        <mxCell id="eZKwlDqIceC6LYPPx4uv-8" value="" style="html=1;align=left;spacing=0;spacingLeft=10;verticalAlign=middle;strokeColor=none;fillColor=none;whiteSpace=wrap;" vertex="1" parent="eZKwlDqIceC6LYPPx4uv-1">
          <mxGeometry y="80" width="200" height="20" as="geometry" />
        </mxCell>
        <mxCell id="eZKwlDqIceC6LYPPx4uv-12" value="" style="fontStyle=1;align=center;verticalAlign=middle;childLayout=stackLayout;horizontal=1;horizontalStack=0;resizeParent=1;resizeParentMax=0;resizeLast=0;marginBottom=0;rounded=1;absoluteArcSize=1;arcSize=22;" vertex="1" parent="2a3bc250acf0617d-7">
          <mxGeometry x="85" y="65" width="200" height="86" as="geometry" />
        </mxCell>
        <mxCell id="eZKwlDqIceC6LYPPx4uv-14" value="Promosyon Kodu Kullanma" style="html=1;align=center;spacing=0;verticalAlign=middle;strokeColor=none;fillColor=none;whiteSpace=wrap;" vertex="1" parent="eZKwlDqIceC6LYPPx4uv-12">
          <mxGeometry width="200" height="20" as="geometry" />
        </mxCell>
        <mxCell id="eZKwlDqIceC6LYPPx4uv-15" value="" style="line;strokeWidth=0.25;fillColor=none;align=left;verticalAlign=middle;spacingTop=-1;spacingLeft=3;spacingRight=3;rotatable=0;labelPosition=right;points=[];portConstraint=eastwest;" vertex="1" parent="eZKwlDqIceC6LYPPx4uv-12">
          <mxGeometry y="20" width="200" height="8" as="geometry" />
        </mxCell>
        <mxCell id="eZKwlDqIceC6LYPPx4uv-16" value="" style="html=1;align=left;spacing=0;spacingLeft=10;verticalAlign=middle;strokeColor=none;fillColor=none;whiteSpace=wrap;" vertex="1" parent="eZKwlDqIceC6LYPPx4uv-12">
          <mxGeometry y="28" width="200" height="10" as="geometry" />
        </mxCell>
        <mxCell id="eZKwlDqIceC6LYPPx4uv-17" value="Kod Girme" style="html=1;align=left;spacing=0;spacingLeft=10;verticalAlign=middle;strokeColor=none;fillColor=none;whiteSpace=wrap;" vertex="1" parent="eZKwlDqIceC6LYPPx4uv-12">
          <mxGeometry y="38" width="200" height="14" as="geometry" />
        </mxCell>
        <mxCell id="eZKwlDqIceC6LYPPx4uv-18" value="İndirim Uygulama" style="html=1;align=left;spacing=0;spacingLeft=10;verticalAlign=middle;strokeColor=none;fillColor=none;whiteSpace=wrap;" vertex="1" parent="eZKwlDqIceC6LYPPx4uv-12">
          <mxGeometry y="52" width="200" height="14" as="geometry" />
        </mxCell>
        <mxCell id="eZKwlDqIceC6LYPPx4uv-20" value="" style="html=1;align=left;spacing=0;spacingLeft=10;verticalAlign=middle;strokeColor=none;fillColor=none;whiteSpace=wrap;" vertex="1" parent="eZKwlDqIceC6LYPPx4uv-12">
          <mxGeometry y="66" width="200" height="20" as="geometry" />
        </mxCell>
        <mxCell id="eZKwlDqIceC6LYPPx4uv-22" style="edgeStyle=orthogonalEdgeStyle;rounded=0;orthogonalLoop=1;jettySize=auto;html=1;" edge="1" parent="2a3bc250acf0617d-7" source="eZKwlDqIceC6LYPPx4uv-18" target="eZKwlDqIceC6LYPPx4uv-2">
          <mxGeometry relative="1" as="geometry">
            <Array as="points">
              <mxPoint x="335" y="124" />
              <mxPoint x="335" y="75" />
            </Array>
          </mxGeometry>
        </mxCell>
        <mxCell id="eZKwlDqIceC6LYPPx4uv-23" value="" style="fontStyle=1;align=center;verticalAlign=middle;childLayout=stackLayout;horizontal=1;horizontalStack=0;resizeParent=1;resizeParentMax=0;resizeLast=0;marginBottom=0;rounded=1;absoluteArcSize=1;arcSize=22;" vertex="1" parent="2a3bc250acf0617d-7">
          <mxGeometry x="715" y="65" width="205" height="80" as="geometry" />
        </mxCell>
        <mxCell id="eZKwlDqIceC6LYPPx4uv-24" value="Ön Ödeme" style="html=1;align=center;spacing=0;verticalAlign=middle;strokeColor=none;fillColor=none;whiteSpace=wrap;" vertex="1" parent="eZKwlDqIceC6LYPPx4uv-23">
          <mxGeometry width="205" height="20" as="geometry" />
        </mxCell>
        <mxCell id="eZKwlDqIceC6LYPPx4uv-25" value="" style="line;strokeWidth=0.25;fillColor=none;align=left;verticalAlign=middle;spacingTop=-1;spacingLeft=3;spacingRight=3;rotatable=0;labelPosition=right;points=[];portConstraint=eastwest;" vertex="1" parent="eZKwlDqIceC6LYPPx4uv-23">
          <mxGeometry y="20" width="205" height="8" as="geometry" />
        </mxCell>
        <mxCell id="eZKwlDqIceC6LYPPx4uv-26" value="" style="html=1;align=left;spacing=0;spacingLeft=10;verticalAlign=middle;strokeColor=none;fillColor=none;whiteSpace=wrap;" vertex="1" parent="eZKwlDqIceC6LYPPx4uv-23">
          <mxGeometry y="28" width="205" height="10" as="geometry" />
        </mxCell>
        <mxCell id="eZKwlDqIceC6LYPPx4uv-27" value="Ödeme Tutarı Belirtme" style="html=1;align=left;spacing=0;spacingLeft=10;verticalAlign=middle;strokeColor=none;fillColor=none;whiteSpace=wrap;" vertex="1" parent="eZKwlDqIceC6LYPPx4uv-23">
          <mxGeometry y="38" width="205" height="14" as="geometry" />
        </mxCell>
        <mxCell id="eZKwlDqIceC6LYPPx4uv-28" value="Ödeme Gerçekleştirme" style="html=1;align=left;spacing=0;spacingLeft=10;verticalAlign=middle;strokeColor=none;fillColor=none;whiteSpace=wrap;" vertex="1" parent="eZKwlDqIceC6LYPPx4uv-23">
          <mxGeometry y="52" width="205" height="14" as="geometry" />
        </mxCell>
        <mxCell id="eZKwlDqIceC6LYPPx4uv-29" value="Randevu Onayı" style="html=1;align=left;spacing=0;spacingLeft=10;verticalAlign=middle;strokeColor=none;fillColor=none;whiteSpace=wrap;" vertex="1" parent="eZKwlDqIceC6LYPPx4uv-23">
          <mxGeometry y="66" width="205" height="14" as="geometry" />
        </mxCell>
        <mxCell id="eZKwlDqIceC6LYPPx4uv-30" style="edgeStyle=orthogonalEdgeStyle;rounded=0;orthogonalLoop=1;jettySize=auto;html=1;" edge="1" parent="2a3bc250acf0617d-7" source="eZKwlDqIceC6LYPPx4uv-28" target="eZKwlDqIceC6LYPPx4uv-2">
          <mxGeometry relative="1" as="geometry">
            <Array as="points">
              <mxPoint x="645" y="124" />
              <mxPoint x="645" y="68" />
            </Array>
          </mxGeometry>
        </mxCell>
        <mxCell id="eZKwlDqIceC6LYPPx4uv-35" style="edgeStyle=orthogonalEdgeStyle;rounded=0;orthogonalLoop=1;jettySize=auto;html=1;" edge="1" parent="1" source="eZKwlDqIceC6LYPPx4uv-34" target="eZKwlDqIceC6LYPPx4uv-2">
          <mxGeometry relative="1" as="geometry" />
        </mxCell>
        <mxCell id="eZKwlDqIceC6LYPPx4uv-34" value="" style="rhombus;whiteSpace=wrap;html=1;fillColor=#000000;" vertex="1" parent="1">
          <mxGeometry x="575" y="393" width="60" height="65" as="geometry" />
        </mxCell>
        <mxCell id="eZKwlDqIceC6LYPPx4uv-36" value="Randevu Süreci" style="swimlane;whiteSpace=wrap;html=1;rounded=1;shadow=0;comic=0;labelBackgroundColor=none;strokeWidth=1;fontFamily=Verdana;fontSize=12;align=center;" vertex="1" parent="1">
          <mxGeometry x="140" y="150" width="930" height="200" as="geometry" />
        </mxCell>
        <mxCell id="eZKwlDqIceC6LYPPx4uv-37" style="edgeStyle=elbowEdgeStyle;html=1;labelBackgroundColor=none;endArrow=open;endSize=8;strokeColor=#ff0000;fontFamily=Verdana;fontSize=12;align=left;" edge="1" parent="eZKwlDqIceC6LYPPx4uv-36">
          <mxGeometry relative="1" as="geometry">
            <mxPoint x="335" y="95" as="sourcePoint" />
          </mxGeometry>
        </mxCell>
        <mxCell id="eZKwlDqIceC6LYPPx4uv-38" style="edgeStyle=elbowEdgeStyle;html=1;labelBackgroundColor=none;endArrow=open;endSize=8;strokeColor=#ff0000;fontFamily=Verdana;fontSize=12;align=left;" edge="1" parent="eZKwlDqIceC6LYPPx4uv-36">
          <mxGeometry relative="1" as="geometry">
            <mxPoint x="520" y="95" as="sourcePoint" />
          </mxGeometry>
        </mxCell>
        <mxCell id="eZKwlDqIceC6LYPPx4uv-39" value="" style="fontStyle=1;align=center;verticalAlign=middle;childLayout=stackLayout;horizontal=1;horizontalStack=0;resizeParent=1;resizeParentMax=0;resizeLast=0;marginBottom=0;rounded=1;absoluteArcSize=1;arcSize=22;" vertex="1" parent="eZKwlDqIceC6LYPPx4uv-36">
          <mxGeometry x="405" y="58" width="200" height="100" as="geometry" />
        </mxCell>
        <mxCell id="eZKwlDqIceC6LYPPx4uv-40" value="Ödeme ve Faturalandırma" style="html=1;align=center;spacing=0;verticalAlign=middle;strokeColor=none;fillColor=none;whiteSpace=wrap;" vertex="1" parent="eZKwlDqIceC6LYPPx4uv-39">
          <mxGeometry width="200" height="20" as="geometry" />
        </mxCell>
        <mxCell id="eZKwlDqIceC6LYPPx4uv-41" value="" style="line;strokeWidth=0.25;fillColor=none;align=left;verticalAlign=middle;spacingTop=-1;spacingLeft=3;spacingRight=3;rotatable=0;labelPosition=right;points=[];portConstraint=eastwest;" vertex="1" parent="eZKwlDqIceC6LYPPx4uv-39">
          <mxGeometry y="20" width="200" height="8" as="geometry" />
        </mxCell>
        <mxCell id="eZKwlDqIceC6LYPPx4uv-42" value="" style="html=1;align=left;spacing=0;spacingLeft=10;verticalAlign=middle;strokeColor=none;fillColor=none;whiteSpace=wrap;" vertex="1" parent="eZKwlDqIceC6LYPPx4uv-39">
          <mxGeometry y="28" width="200" height="10" as="geometry" />
        </mxCell>
        <mxCell id="eZKwlDqIceC6LYPPx4uv-43" value="Ödeme Yöntemi Seçme" style="html=1;align=left;spacing=0;spacingLeft=10;verticalAlign=middle;strokeColor=none;fillColor=none;whiteSpace=wrap;" vertex="1" parent="eZKwlDqIceC6LYPPx4uv-39">
          <mxGeometry y="38" width="200" height="14" as="geometry" />
        </mxCell>
        <mxCell id="eZKwlDqIceC6LYPPx4uv-44" value="Tutar Onayı" style="html=1;align=left;spacing=0;spacingLeft=10;verticalAlign=middle;strokeColor=none;fillColor=none;whiteSpace=wrap;" vertex="1" parent="eZKwlDqIceC6LYPPx4uv-39">
          <mxGeometry y="52" width="200" height="14" as="geometry" />
        </mxCell>
        <mxCell id="eZKwlDqIceC6LYPPx4uv-45" value="Fatura Oluşturma" style="html=1;align=left;spacingLeft=10;spacing=0;verticalAlign=middle;strokeColor=none;fillColor=none;whiteSpace=wrap;" vertex="1" parent="eZKwlDqIceC6LYPPx4uv-39">
          <mxGeometry y="66" width="200" height="14" as="geometry" />
        </mxCell>
        <mxCell id="eZKwlDqIceC6LYPPx4uv-46" value="" style="html=1;align=left;spacing=0;spacingLeft=10;verticalAlign=middle;strokeColor=none;fillColor=none;whiteSpace=wrap;" vertex="1" parent="eZKwlDqIceC6LYPPx4uv-39">
          <mxGeometry y="80" width="200" height="20" as="geometry" />
        </mxCell>
        <mxCell id="eZKwlDqIceC6LYPPx4uv-47" value="" style="fontStyle=1;align=center;verticalAlign=middle;childLayout=stackLayout;horizontal=1;horizontalStack=0;resizeParent=1;resizeParentMax=0;resizeLast=0;marginBottom=0;rounded=1;absoluteArcSize=1;arcSize=22;" vertex="1" parent="eZKwlDqIceC6LYPPx4uv-36">
          <mxGeometry x="85" y="65" width="200" height="86" as="geometry" />
        </mxCell>
        <mxCell id="eZKwlDqIceC6LYPPx4uv-48" value="Promosyon Kodu Kullanma" style="html=1;align=center;spacing=0;verticalAlign=middle;strokeColor=none;fillColor=none;whiteSpace=wrap;" vertex="1" parent="eZKwlDqIceC6LYPPx4uv-47">
          <mxGeometry width="200" height="20" as="geometry" />
        </mxCell>
        <mxCell id="eZKwlDqIceC6LYPPx4uv-49" value="" style="line;strokeWidth=0.25;fillColor=none;align=left;verticalAlign=middle;spacingTop=-1;spacingLeft=3;spacingRight=3;rotatable=0;labelPosition=right;points=[];portConstraint=eastwest;" vertex="1" parent="eZKwlDqIceC6LYPPx4uv-47">
          <mxGeometry y="20" width="200" height="8" as="geometry" />
        </mxCell>
        <mxCell id="eZKwlDqIceC6LYPPx4uv-50" value="" style="html=1;align=left;spacing=0;spacingLeft=10;verticalAlign=middle;strokeColor=none;fillColor=none;whiteSpace=wrap;" vertex="1" parent="eZKwlDqIceC6LYPPx4uv-47">
          <mxGeometry y="28" width="200" height="10" as="geometry" />
        </mxCell>
        <mxCell id="eZKwlDqIceC6LYPPx4uv-51" value="Kod Girme" style="html=1;align=left;spacing=0;spacingLeft=10;verticalAlign=middle;strokeColor=none;fillColor=none;whiteSpace=wrap;" vertex="1" parent="eZKwlDqIceC6LYPPx4uv-47">
          <mxGeometry y="38" width="200" height="14" as="geometry" />
        </mxCell>
        <mxCell id="eZKwlDqIceC6LYPPx4uv-52" value="İndirim Uygulama" style="html=1;align=left;spacing=0;spacingLeft=10;verticalAlign=middle;strokeColor=none;fillColor=none;whiteSpace=wrap;" vertex="1" parent="eZKwlDqIceC6LYPPx4uv-47">
          <mxGeometry y="52" width="200" height="14" as="geometry" />
        </mxCell>
        <mxCell id="eZKwlDqIceC6LYPPx4uv-53" value="" style="html=1;align=left;spacing=0;spacingLeft=10;verticalAlign=middle;strokeColor=none;fillColor=none;whiteSpace=wrap;" vertex="1" parent="eZKwlDqIceC6LYPPx4uv-47">
          <mxGeometry y="66" width="200" height="20" as="geometry" />
        </mxCell>
        <mxCell id="eZKwlDqIceC6LYPPx4uv-54" style="edgeStyle=orthogonalEdgeStyle;rounded=0;orthogonalLoop=1;jettySize=auto;html=1;" edge="1" parent="eZKwlDqIceC6LYPPx4uv-36" source="eZKwlDqIceC6LYPPx4uv-52" target="eZKwlDqIceC6LYPPx4uv-40">
          <mxGeometry relative="1" as="geometry">
            <Array as="points">
              <mxPoint x="335" y="124" />
              <mxPoint x="335" y="75" />
            </Array>
          </mxGeometry>
        </mxCell>
        <mxCell id="eZKwlDqIceC6LYPPx4uv-55" value="" style="fontStyle=1;align=center;verticalAlign=middle;childLayout=stackLayout;horizontal=1;horizontalStack=0;resizeParent=1;resizeParentMax=0;resizeLast=0;marginBottom=0;rounded=1;absoluteArcSize=1;arcSize=22;" vertex="1" parent="eZKwlDqIceC6LYPPx4uv-36">
          <mxGeometry x="715" y="65" width="205" height="80" as="geometry" />
        </mxCell>
        <mxCell id="eZKwlDqIceC6LYPPx4uv-56" value="Ön Ödeme" style="html=1;align=center;spacing=0;verticalAlign=middle;strokeColor=none;fillColor=none;whiteSpace=wrap;" vertex="1" parent="eZKwlDqIceC6LYPPx4uv-55">
          <mxGeometry width="205" height="20" as="geometry" />
        </mxCell>
        <mxCell id="eZKwlDqIceC6LYPPx4uv-57" value="" style="line;strokeWidth=0.25;fillColor=none;align=left;verticalAlign=middle;spacingTop=-1;spacingLeft=3;spacingRight=3;rotatable=0;labelPosition=right;points=[];portConstraint=eastwest;" vertex="1" parent="eZKwlDqIceC6LYPPx4uv-55">
          <mxGeometry y="20" width="205" height="8" as="geometry" />
        </mxCell>
        <mxCell id="eZKwlDqIceC6LYPPx4uv-58" value="" style="html=1;align=left;spacing=0;spacingLeft=10;verticalAlign=middle;strokeColor=none;fillColor=none;whiteSpace=wrap;" vertex="1" parent="eZKwlDqIceC6LYPPx4uv-55">
          <mxGeometry y="28" width="205" height="10" as="geometry" />
        </mxCell>
        <mxCell id="eZKwlDqIceC6LYPPx4uv-59" value="Ödeme Tutarı Belirtme" style="html=1;align=left;spacing=0;spacingLeft=10;verticalAlign=middle;strokeColor=none;fillColor=none;whiteSpace=wrap;" vertex="1" parent="eZKwlDqIceC6LYPPx4uv-55">
          <mxGeometry y="38" width="205" height="14" as="geometry" />
        </mxCell>
        <mxCell id="eZKwlDqIceC6LYPPx4uv-60" value="Ödeme Gerçekleştirme" style="html=1;align=left;spacing=0;spacingLeft=10;verticalAlign=middle;strokeColor=none;fillColor=none;whiteSpace=wrap;" vertex="1" parent="eZKwlDqIceC6LYPPx4uv-55">
          <mxGeometry y="52" width="205" height="14" as="geometry" />
        </mxCell>
        <mxCell id="eZKwlDqIceC6LYPPx4uv-61" value="Randevu Onayı" style="html=1;align=left;spacing=0;spacingLeft=10;verticalAlign=middle;strokeColor=none;fillColor=none;whiteSpace=wrap;" vertex="1" parent="eZKwlDqIceC6LYPPx4uv-55">
          <mxGeometry y="66" width="205" height="14" as="geometry" />
        </mxCell>
        <mxCell id="eZKwlDqIceC6LYPPx4uv-62" style="edgeStyle=orthogonalEdgeStyle;rounded=0;orthogonalLoop=1;jettySize=auto;html=1;" edge="1" parent="eZKwlDqIceC6LYPPx4uv-36" source="eZKwlDqIceC6LYPPx4uv-60" target="eZKwlDqIceC6LYPPx4uv-40">
          <mxGeometry relative="1" as="geometry">
            <Array as="points">
              <mxPoint x="645" y="124" />
              <mxPoint x="645" y="68" />
            </Array>
          </mxGeometry>
        </mxCell>
      </root>
    </mxGraphModel>
  </diagram>
</mxfile>
